<svg xmlns="http://www.w3.org/2000/svg" width="119" height="32" viewBox="0 0 119 32" fill="none"><g clip-path="url(#clip0_1526_11005)"><path d="M45.7105 15.9686C45.608 15.919 45.608 15.8199 45.6977 15.758C46.2744 15.3739 46.6332 14.7917 46.6332 13.974C46.6332 12.5369 45.6208 11.4839 43.5961 11.4839H39.239C39.0852 11.4839 38.957 11.6078 38.957 11.7564V20.2427C38.957 20.3914 39.0852 20.5152 39.239 20.5152H44.0061C45.9027 20.5152 47.0561 19.4622 47.0561 17.9632C47.0433 16.9969 46.5307 16.3403 45.7105 15.9686ZM41.3406 13.8254C41.3406 13.7015 41.4431 13.59 41.5841 13.59H43.4551C43.9549 13.59 44.2112 13.8749 44.2112 14.3085C44.2112 14.7421 43.9677 15.0271 43.3269 15.0271H41.5841C41.456 15.0271 41.3406 14.9279 41.3406 14.7917V13.8254ZM43.737 18.4216H41.5841C41.456 18.4216 41.3406 18.3224 41.3406 18.1862V17.0588C41.3406 16.9349 41.4431 16.8234 41.5841 16.8234H43.737C44.3906 16.8234 44.6213 17.1331 44.6213 17.6039C44.6341 18.0871 44.3906 18.4216 43.737 18.4216Z" fill="#0C0C0C"></path><path d="M55.0398 17.988C54.9629 17.8888 54.9886 17.7402 55.1167 17.6906C56.2316 17.096 56.7442 15.9934 56.7442 14.7917C56.7442 12.9953 55.6421 11.4839 53.2457 11.4839H48.9655C48.8117 11.4839 48.6836 11.6078 48.6836 11.7564V20.2427C48.6836 20.3914 48.8117 20.5152 48.9655 20.5152H50.7724C50.9262 20.5152 51.0544 20.3914 51.0544 20.2427V18.3348C51.0544 18.2109 51.1569 18.0995 51.2979 18.0995H52.0411C52.1821 18.0995 52.3359 18.1738 52.4256 18.2853L53.8865 20.2923C53.989 20.4285 54.1684 20.5276 54.3478 20.5276H56.6417C56.757 20.5276 56.8339 20.4037 56.757 20.2923L55.0398 17.988ZM53.1176 16.0058H51.3107C51.1825 16.0058 51.0672 15.9067 51.0672 15.7704V13.8254C51.0672 13.7015 51.1697 13.59 51.3107 13.59H53.1176C54.0787 13.59 54.4375 14.1103 54.4375 14.8041C54.4375 15.4359 54.0787 16.0058 53.1176 16.0058Z" fill="#0C0C0C"></path><path d="M63.8309 11.7441C63.7669 11.5954 63.6003 11.4839 63.4337 11.4839H61.6396C61.473 11.4839 61.3064 11.583 61.2423 11.7441L57.6669 20.2675C57.6157 20.379 57.7054 20.5276 57.8463 20.5276H59.8839C60.0505 20.5276 60.2043 20.4285 60.2684 20.2675L60.6015 19.425C60.6528 19.3012 60.781 19.202 60.9219 19.202H64.1257C64.2666 19.202 64.4076 19.2888 64.446 19.425L64.7792 20.2675C64.8433 20.4161 64.9971 20.5276 65.1637 20.5276H67.2013C67.3422 20.5276 67.4319 20.3914 67.3807 20.2675L63.8309 11.7441ZM63.3183 17.096H61.7421C61.6267 17.096 61.5499 16.9845 61.5883 16.873L62.4469 14.6554C62.4725 14.5687 62.5879 14.5687 62.6135 14.6554L63.4593 16.873C63.5106 16.9845 63.4337 17.096 63.3183 17.096Z" fill="#0C0C0C"></path><path d="M70.9298 11.4839H69.1101C68.9563 11.4839 68.8281 11.6078 68.8281 11.7564V20.2427C68.8281 20.3914 68.9563 20.5152 69.1101 20.5152H70.9298C71.0836 20.5152 71.2117 20.3914 71.2117 20.2427V11.7564C71.2117 11.6078 71.0836 11.4839 70.9298 11.4839Z" fill="#0C0C0C"></path><path d="M81.5411 11.4839H79.7342C79.5804 11.4839 79.4522 11.6078 79.4522 11.7564V16.3031C79.4522 16.3898 79.3625 16.4146 79.3113 16.3526L75.4668 11.7069C75.3642 11.5706 75.1848 11.4839 75.0054 11.4839H73.5573C73.4035 11.4839 73.2754 11.6078 73.2754 11.7564V20.2427C73.2754 20.3914 73.4035 20.5152 73.5573 20.5152H75.3514C75.5052 20.5152 75.6334 20.3914 75.6334 20.2427V15.7084C75.6334 15.6217 75.7231 15.5969 75.7743 15.6589L79.6188 20.2923C79.7213 20.4285 79.9008 20.5152 80.0802 20.5152H81.5283C81.682 20.5152 81.8102 20.3914 81.8102 20.2427V11.7564C81.8358 11.6078 81.6949 11.4839 81.5411 11.4839Z" fill="#0C0C0C"></path><path d="M87.6804 14.8415C86.5655 14.4698 86.1298 14.284 86.1298 13.9247C86.1298 13.6274 86.4502 13.3053 87.2703 13.3053C88.0648 13.3053 88.5134 13.6522 88.6543 14.0362C88.7312 14.2468 88.8337 14.346 89.0644 14.346H90.7304C90.897 14.346 91.0507 14.1849 91.0379 14.0239C90.9226 12.4009 89.3976 11.2983 87.219 11.2983C85.0918 11.2983 83.5668 12.3762 83.5668 14.0982C83.5668 15.9689 85.5147 16.6626 87.0012 17.1334C88.1289 17.5051 88.5903 17.7405 88.5903 18.1121C88.5903 18.3847 88.3083 18.6696 87.3985 18.6696C86.5655 18.6696 86.0657 18.3971 85.8991 18.0873C85.7581 17.8396 85.6941 17.79 85.425 17.79H83.8103C83.6437 17.79 83.4899 17.9511 83.5027 18.1121C83.6821 19.7846 85.3481 20.689 87.4625 20.689C89.5898 20.689 91.1789 19.7598 91.1789 18.0006C91.1789 16.0308 88.9747 15.2875 87.6804 14.8415Z" fill="#0C0C0C"></path><path d="M100.212 11.4839H92.5612C92.4074 11.4839 92.2793 11.6078 92.2793 11.7564V13.4537C92.2793 13.6024 92.4074 13.7262 92.5612 13.7262H94.9448C95.073 13.7262 95.1883 13.8254 95.1883 13.9616V20.2427C95.1883 20.3914 95.3165 20.5152 95.4702 20.5152H97.29C97.4437 20.5152 97.5719 20.3914 97.5719 20.2427V13.9616C97.5719 13.8377 97.6744 13.7262 97.8154 13.7262H100.212C100.366 13.7262 100.494 13.6024 100.494 13.4537V11.7564C100.494 11.6078 100.366 11.4839 100.212 11.4839Z" fill="#0C0C0C"></path><path d="M108.85 11.4839H102.251C102.097 11.4839 101.969 11.6078 101.969 11.7564V20.2427C101.969 20.3914 102.097 20.5152 102.251 20.5152H108.85C109.004 20.5152 109.132 20.3914 109.132 20.2427V18.5578C109.132 18.4092 109.004 18.2853 108.85 18.2853H104.596C104.468 18.2853 104.352 18.1862 104.352 18.0499V17.3561C104.352 17.2322 104.455 17.1207 104.596 17.1207H108.005C108.158 17.1207 108.287 16.9969 108.287 16.8482V15.312C108.287 15.1633 108.158 15.0394 108.005 15.0394H104.596C104.468 15.0394 104.352 14.9403 104.352 14.8041V13.974C104.352 13.8501 104.455 13.7386 104.596 13.7386H108.85C109.004 13.7386 109.132 13.6147 109.132 13.4661V11.7564C109.132 11.6078 109.004 11.4839 108.85 11.4839Z" fill="#0C0C0C"></path><path d="M118.974 20.2923L117.257 17.988C117.18 17.8888 117.205 17.7402 117.334 17.6906C118.448 17.096 118.961 15.9934 118.961 14.7917C118.961 12.9953 117.859 11.4839 115.463 11.4839H111.182C111.029 11.4839 110.9 11.6078 110.9 11.7564V20.2427C110.9 20.3914 111.029 20.5152 111.182 20.5152H112.989C113.143 20.5152 113.271 20.3914 113.271 20.2427V18.3348C113.271 18.2109 113.374 18.0995 113.515 18.0995H114.258C114.399 18.0995 114.553 18.1738 114.642 18.2853L116.103 20.2923C116.206 20.4285 116.385 20.5276 116.565 20.5276H118.859C118.974 20.5152 119.051 20.3914 118.974 20.2923ZM115.334 16.0058H113.527C113.399 16.0058 113.284 15.9067 113.284 15.7704V13.8254C113.284 13.7015 113.387 13.59 113.527 13.59H115.334C116.296 13.59 116.654 14.1103 116.654 14.8041C116.654 15.4359 116.296 16.0058 115.334 16.0058Z" fill="#0C0C0C"></path><path d="M19.6837 21.5438L15.8648 23.6746C15.4932 23.8852 15.365 24.356 15.5829 24.7153C15.7879 25.0621 16.3005 25.1984 16.6593 24.9878L20.0809 23.08L23.5025 24.9878C23.6179 25.0498 23.7588 25.0869 23.8998 25.0869C24.1817 25.0869 24.438 24.9383 24.579 24.7029C24.7969 24.3436 24.6687 23.8728 24.2971 23.6622L20.4782 21.5314C20.2347 21.4075 19.9272 21.4075 19.6837 21.5438Z" fill="#0C0C0C"></path><path d="M32.3066 20.5144V16.2527C32.3066 16.1659 32.281 16.0792 32.2553 15.9925C32.2938 15.9058 32.3066 15.8191 32.3066 15.72V11.4706C32.3066 11.1981 32.1528 10.9503 31.9093 10.814L28.4877 8.90617V5.05329C28.4877 4.78074 28.3339 4.53297 28.0905 4.39669L24.451 2.36494C24.3997 2.31539 24.3357 2.26583 24.2716 2.22867L20.4784 0.0978122C20.2349 -0.0384634 19.9273 -0.0384634 19.6966 0.0978122L16.211 2.04284L12.7125 0.0978122C12.469 -0.0384634 12.1614 -0.0384634 11.9308 0.0978122L8.11189 2.22867C8.02219 2.27822 7.9453 2.34017 7.88122 2.42689L4.20332 4.47102C3.95983 4.6073 3.80605 4.85507 3.80605 5.12762V8.90617L0.397265 10.8264C0.15378 10.9503 0 11.2105 0 11.483V15.7323C0 15.8191 0.02563 15.9058 0.05126 15.9925C0.012815 16.0792 0 16.1659 0 16.2651V20.5268C0 20.7993 0.15378 21.0471 0.397265 21.1834L3.81887 23.0912V26.9441C3.81887 27.2167 3.97265 27.4644 4.21613 27.6007L7.85559 29.6325C7.90685 29.682 7.97093 29.7316 8.035 29.7687L11.8539 31.8996C11.9692 31.9615 12.1102 31.9987 12.2511 31.9987C12.3921 31.9987 12.5202 31.9615 12.6484 31.8996L16.1341 29.9546L19.6198 31.8996C19.7351 31.9615 19.8761 31.9987 20.017 31.9987C20.158 31.9987 20.2861 31.9615 20.4143 31.8996L24.2332 29.7687C24.3229 29.7192 24.3997 29.6572 24.4638 29.5705L28.1289 27.5264C28.3724 27.3901 28.5262 27.1423 28.5262 26.8698V23.0912L31.9478 21.1834C32.1656 21.0471 32.3066 20.7869 32.3066 20.5144ZM24.2844 19.8206C23.9256 19.6224 23.413 19.7463 23.208 20.0932C23.1054 20.2666 23.0798 20.4772 23.1311 20.6754C23.1823 20.8737 23.3105 21.0347 23.5027 21.1338L26.9243 23.0417V26.4238L23.9 28.121L20.4784 26.2132C20.1195 26.015 19.6198 26.1388 19.4019 26.4857C19.2994 26.6592 19.2738 26.8698 19.325 27.068C19.3763 27.2662 19.5044 27.4273 19.6966 27.5264L22.3878 29.0254L19.9914 30.3634L16.5698 28.4555C16.4288 28.3812 16.2622 28.344 16.1084 28.3688C15.9547 28.3564 15.7881 28.3812 15.6471 28.4555L12.2255 30.3634L9.20117 28.6785V24.8628C9.20117 24.4416 8.84234 24.1071 8.41945 24.1071C7.98374 24.1071 7.63774 24.454 7.63774 24.8628V27.7618L5.3823 26.4981V23.116L8.41945 21.4311L11.4438 23.116V26.9317C11.4438 27.3529 11.8026 27.6874 12.2255 27.6874C12.6612 27.6874 13.0072 27.3406 13.0072 26.9317V22.7939L15.7496 21.2577C15.929 21.1586 16.0572 20.9975 16.1213 20.7993C16.1725 20.6011 16.1469 20.4029 16.0444 20.2171C15.8393 19.8702 15.3267 19.7339 14.9679 19.9445L11.9179 21.6418L9.18835 20.1179V16.5252L12.0205 14.9395C12.1999 14.8404 12.328 14.6793 12.3921 14.4811C12.4434 14.2829 12.4177 14.0846 12.3152 13.8988C12.1102 13.5519 11.6104 13.4157 11.2387 13.6263L8.32975 15.2616L4.99785 13.4033C4.63903 13.2051 4.12643 13.3289 3.92139 13.6758C3.70353 14.0351 3.83168 14.5059 4.20332 14.7165L7.62492 16.6243V20.1179L4.62621 21.7904L1.57624 20.0808V17.0455L4.21613 18.5198C4.33147 18.5817 4.47243 18.6189 4.6134 18.6189C4.89533 18.6189 5.15163 18.4702 5.29259 18.2349C5.51045 17.8756 5.3823 17.4048 5.01066 17.1942L1.58906 15.2864V11.9166L4.58777 10.2442L8.04782 12.1768C8.16315 12.2387 8.30412 12.2759 8.44508 12.2759C8.72701 12.2759 8.98331 12.1272 9.12427 11.8919C9.34213 11.5326 9.21398 11.0618 8.84235 10.8512L5.3823 8.94334V5.56123L8.40664 3.87636L11.8282 5.78422C12.1871 5.98244 12.6997 5.85856 12.9047 5.51167C13.0072 5.33823 13.0328 5.12762 12.9816 4.9294C12.9303 4.73118 12.8022 4.57013 12.61 4.47102L9.9188 2.97199L12.3024 1.6464L15.724 3.55426C15.8393 3.6162 15.9803 3.65337 16.1213 3.65337C16.1469 3.65337 16.1725 3.64098 16.1982 3.64098C16.3519 3.65337 16.5057 3.62859 16.6467 3.55426L20.0683 1.6464L23.0926 3.33126V7.14698C23.0926 7.5682 23.4514 7.90269 23.8743 7.90269C24.31 7.90269 24.656 7.55581 24.656 7.14698V4.24802L26.8987 5.49928V8.8814L23.8743 10.5663L20.85 8.8814V5.05329C20.85 4.63207 20.4912 4.29758 20.0683 4.29758C19.6326 4.29758 19.2866 4.64446 19.2866 5.05329V9.2035L16.5442 10.7397C16.3647 10.8388 16.2366 10.9999 16.1725 11.1981C16.1213 11.3963 16.1469 11.5945 16.2494 11.7804C16.3904 12.0157 16.6467 12.1644 16.9286 12.1644C17.0696 12.1644 17.1977 12.1272 17.3259 12.0653L20.3758 10.3557L23.1054 11.8795V15.4722L20.2733 17.0579C19.9017 17.2685 19.7735 17.7393 19.9914 18.0986C20.1324 18.334 20.3887 18.4826 20.6706 18.4826C20.8115 18.4826 20.9397 18.4455 21.0678 18.3835L23.9897 16.7482L27.3216 18.6065C27.4369 18.6685 27.5779 18.7056 27.7188 18.7056C28.0008 18.7056 28.2571 18.557 28.398 18.3216C28.6159 17.9623 28.4877 17.4915 28.1161 17.2809L24.6945 15.3731V11.8795L27.6804 10.207L30.7304 11.9166V14.9519L28.0905 13.4776C27.7316 13.2794 27.219 13.4033 27.014 13.7502C26.7962 14.1094 26.9243 14.5802 27.2959 14.7908L30.7175 16.6987V20.0808L27.7188 21.7533L24.2844 19.8206Z" fill="#0C0C0C"></path><path d="M18.2997 15.3123C18.3509 15.1141 18.3253 14.9159 18.2228 14.7301C18.0177 14.3832 17.5051 14.2469 17.1463 14.4575L14.0066 16.2043C13.8272 16.3034 13.6991 16.4645 13.635 16.6627C13.5837 16.8609 13.6094 17.0592 13.7119 17.245C13.8529 17.4804 14.1092 17.629 14.3911 17.629C14.5321 17.629 14.6602 17.5919 14.7884 17.5299L17.928 15.7707C18.1202 15.6716 18.2484 15.5106 18.2997 15.3123Z" fill="#0C0C0C"></path><path d="M16.8013 7.86654C16.8525 7.66832 16.8269 7.47011 16.7244 7.28427C16.5194 6.93739 16.0196 6.80112 15.6479 7.01172L12.2263 8.91958L8.80473 7.01172C8.44591 6.8135 7.94613 6.93739 7.74109 7.28427C7.52323 7.64355 7.65138 8.11432 8.02302 8.32492L11.8419 10.4558C11.9572 10.5177 12.0982 10.5549 12.2391 10.5549C12.3801 10.5549 12.5083 10.5177 12.6364 10.4558L16.4553 8.32492C16.6219 8.22581 16.75 8.06476 16.8013 7.86654Z" fill="#0C0C0C"></path></g><defs><clipPath id="clip0_1526_11005"><rect width="119" height="32" fill="white"></rect></clipPath></defs></svg>